<svg width="110" height="33" viewBox="0 0 110 33" fill="none" xmlns="http://www.w3.org/2000/svg">
<path d="M54.9556 3.33594H56.8159L59.5552 11.1655L62.2944 3.33594H64.1548L60.3022 14H58.8081L54.9556 3.33594ZM53.9521 3.33594H55.8052L56.1421 10.9678V14H53.9521V3.33594ZM63.3052 3.33594H65.1655V14H62.9683V10.9678L63.3052 3.33594ZM70.1574 14.1465C69.5422 14.1465 68.9904 14.0488 68.5021 13.8535C68.0139 13.6533 67.5988 13.3774 67.257 13.0259C66.9201 12.6743 66.6613 12.2666 66.4807 11.8027C66.3 11.334 66.2097 10.8359 66.2097 10.3086V10.0156C66.2097 9.41504 66.2951 8.86572 66.466 8.36768C66.6369 7.86963 66.8811 7.4375 67.1984 7.07129C67.5207 6.70508 67.9113 6.42432 68.3703 6.229C68.8293 6.02881 69.3469 5.92871 69.923 5.92871C70.4846 5.92871 70.9826 6.02148 71.4172 6.20703C71.8518 6.39258 72.2155 6.65625 72.5085 6.99805C72.8063 7.33984 73.031 7.75 73.1823 8.22852C73.3337 8.70215 73.4094 9.22949 73.4094 9.81055V10.6895H67.1105V9.2832H71.3366V9.12207C71.3366 8.8291 71.2829 8.56787 71.1755 8.33838C71.0729 8.104 70.9167 7.91846 70.7067 7.78174C70.4968 7.64502 70.2282 7.57666 69.9011 7.57666C69.6228 7.57666 69.3835 7.6377 69.1833 7.75977C68.9831 7.88184 68.8195 8.05273 68.6926 8.27246C68.5705 8.49219 68.4777 8.75098 68.4143 9.04883C68.3557 9.3418 68.3264 9.66406 68.3264 10.0156V10.3086C68.3264 10.626 68.3703 10.9189 68.4582 11.1875C68.551 11.4561 68.6804 11.688 68.8464 11.8833C69.0173 12.0786 69.2224 12.23 69.4616 12.3374C69.7058 12.4448 69.9816 12.4985 70.2893 12.4985C70.6701 12.4985 71.0241 12.4253 71.3513 12.2788C71.6833 12.1274 71.9689 11.9004 72.2082 11.5977L73.2336 12.7109C73.0676 12.9502 72.8405 13.1797 72.5524 13.3994C72.2692 13.6191 71.9274 13.7998 71.5271 13.9414C71.1267 14.0781 70.6701 14.1465 70.1574 14.1465ZM78.0424 6.0752V7.56934H73.4281V6.0752H78.0424ZM74.5707 4.11963H76.6801V11.6123C76.6801 11.8418 76.7094 12.0176 76.768 12.1396C76.8314 12.2617 76.9242 12.3472 77.0463 12.396C77.1684 12.4399 77.3222 12.4619 77.5077 12.4619C77.6396 12.4619 77.7567 12.457 77.8593 12.4473C77.9667 12.4326 78.057 12.418 78.1303 12.4033L78.1376 13.9561C77.9569 14.0146 77.7616 14.061 77.5517 14.0952C77.3417 14.1294 77.1098 14.1465 76.8559 14.1465C76.392 14.1465 75.9867 14.0708 75.64 13.9194C75.2982 13.7632 75.0346 13.5142 74.849 13.1724C74.6635 12.8306 74.5707 12.3813 74.5707 11.8247V4.11963ZM83.0709 12.2129V8.68262C83.0709 8.42871 83.0294 8.21143 82.9464 8.03076C82.8634 7.84521 82.734 7.70117 82.5582 7.59863C82.3873 7.49609 82.1651 7.44482 81.8917 7.44482C81.6573 7.44482 81.4547 7.48633 81.2838 7.56934C81.1129 7.64746 80.9811 7.76221 80.8883 7.91357C80.7955 8.06006 80.7491 8.2334 80.7491 8.43359H78.6397C78.6397 8.09668 78.7179 7.77686 78.8741 7.47412C79.0304 7.17139 79.2574 6.90527 79.5553 6.67578C79.8531 6.44141 80.2071 6.2583 80.6173 6.12646C81.0323 5.99463 81.4962 5.92871 82.0089 5.92871C82.6241 5.92871 83.171 6.03125 83.6495 6.23633C84.128 6.44141 84.504 6.74902 84.7774 7.15918C85.0558 7.56934 85.1949 8.08203 85.1949 8.69727V12.0884C85.1949 12.5229 85.2218 12.8794 85.2755 13.1577C85.3292 13.4312 85.4073 13.6704 85.5099 13.8755V14H83.3785C83.276 13.7852 83.1979 13.5166 83.1441 13.1943C83.0953 12.8672 83.0709 12.54 83.0709 12.2129ZM83.3492 9.17334L83.3639 10.3672H82.1847C81.9063 10.3672 81.6646 10.3989 81.4596 10.4624C81.2545 10.5259 81.086 10.6162 80.9542 10.7334C80.8224 10.8457 80.7247 10.9775 80.6612 11.1289C80.6026 11.2803 80.5733 11.4463 80.5733 11.627C80.5733 11.8076 80.6148 11.9712 80.6979 12.1177C80.7809 12.2593 80.9005 12.3716 81.0567 12.4546C81.213 12.5327 81.3961 12.5718 81.6061 12.5718C81.9234 12.5718 82.1993 12.5083 82.4337 12.3813C82.6681 12.2544 82.8487 12.0981 82.9757 11.9126C83.1075 11.7271 83.1759 11.5513 83.1808 11.3853L83.7374 12.2788C83.6593 12.479 83.5519 12.6865 83.4151 12.9014C83.2833 13.1162 83.1148 13.3188 82.9098 13.5093C82.7047 13.6948 82.4581 13.8486 82.17 13.9707C81.8819 14.0879 81.5401 14.1465 81.1446 14.1465C80.6417 14.1465 80.1852 14.0464 79.775 13.8462C79.3697 13.6411 79.0475 13.3604 78.8082 13.0039C78.5738 12.6426 78.4566 12.2324 78.4566 11.7734C78.4566 11.3584 78.5348 10.9897 78.691 10.6675C78.8473 10.3452 79.0768 10.0742 79.3795 9.85449C79.6871 9.62988 80.0704 9.46143 80.5294 9.34912C80.9884 9.23193 81.5206 9.17334 82.1261 9.17334H83.3492ZM88.5975 2.75V14H86.4808V2.75H88.5975ZM94.1753 11.8101C94.1753 11.6587 94.1313 11.522 94.0435 11.3999C93.9556 11.2778 93.792 11.1655 93.5527 11.063C93.3184 10.9556 92.979 10.8579 92.5347 10.77C92.1343 10.6821 91.7607 10.5723 91.4141 10.4404C91.0723 10.3037 90.7744 10.1401 90.5205 9.94971C90.2715 9.75928 90.0762 9.53467 89.9346 9.27588C89.793 9.01221 89.7222 8.71191 89.7222 8.375C89.7222 8.04297 89.793 7.73047 89.9346 7.4375C90.0811 7.14453 90.2886 6.88574 90.5571 6.66113C90.8306 6.43164 91.1626 6.25342 91.5532 6.12646C91.9487 5.99463 92.3931 5.92871 92.8862 5.92871C93.5747 5.92871 94.1655 6.03857 94.6587 6.2583C95.1567 6.47803 95.5376 6.78076 95.8013 7.1665C96.0698 7.54736 96.2041 7.98193 96.2041 8.47021H94.0947C94.0947 8.26514 94.0508 8.08203 93.9629 7.9209C93.8799 7.75488 93.748 7.62549 93.5674 7.53271C93.3916 7.43506 93.1621 7.38623 92.8789 7.38623C92.6445 7.38623 92.4419 7.42773 92.271 7.51074C92.1001 7.58887 91.9683 7.69629 91.8755 7.83301C91.7876 7.96484 91.7437 8.11133 91.7437 8.27246C91.7437 8.39453 91.7681 8.50439 91.8169 8.60205C91.8706 8.69482 91.9561 8.78027 92.0732 8.8584C92.1904 8.93652 92.3418 9.00977 92.5273 9.07812C92.7178 9.1416 92.9521 9.2002 93.2305 9.25391C93.8018 9.37109 94.312 9.5249 94.7612 9.71533C95.2104 9.90088 95.5669 10.1548 95.8306 10.4771C96.0942 10.7944 96.2261 11.2119 96.2261 11.7295C96.2261 12.0811 96.1479 12.4033 95.9917 12.6963C95.8354 12.9893 95.6108 13.2456 95.3179 13.4653C95.0249 13.6802 94.6733 13.8486 94.2632 13.9707C93.8579 14.0879 93.4014 14.1465 92.8936 14.1465C92.1562 14.1465 91.5312 14.0146 91.0186 13.751C90.5107 13.4873 90.125 13.1528 89.8613 12.7476C89.6025 12.3374 89.4731 11.9175 89.4731 11.4878H91.4727C91.4824 11.7759 91.5557 12.0078 91.6924 12.1836C91.834 12.3594 92.0122 12.4863 92.2271 12.5645C92.4468 12.6426 92.6836 12.6816 92.9375 12.6816C93.2109 12.6816 93.438 12.645 93.6187 12.5718C93.7993 12.4937 93.936 12.3911 94.0288 12.2642C94.1265 12.1323 94.1753 11.981 94.1753 11.8101ZM102.108 8.29443L104.159 6.96875C104.462 6.76855 104.664 6.57568 104.767 6.39014C104.87 6.20459 104.921 5.99707 104.921 5.76758C104.921 5.53809 104.835 5.32568 104.664 5.13037C104.494 4.93018 104.254 4.83008 103.947 4.83008C103.727 4.83008 103.541 4.88135 103.39 4.98389C103.239 5.08154 103.124 5.21338 103.046 5.37939C102.973 5.54541 102.936 5.73096 102.936 5.93604C102.936 6.15576 102.995 6.38037 103.112 6.60986C103.229 6.83447 103.388 7.07373 103.588 7.32764C103.788 7.57666 104.01 7.84766 104.254 8.14062L109.286 14H106.891L102.789 9.25391C102.443 8.82422 102.14 8.43115 101.881 8.07471C101.622 7.71338 101.42 7.36182 101.273 7.02002C101.127 6.67822 101.054 6.32666 101.054 5.96533C101.054 5.40869 101.173 4.92285 101.412 4.50781C101.652 4.08789 101.989 3.76318 102.423 3.53369C102.858 3.29932 103.368 3.18213 103.954 3.18213C104.506 3.18213 104.984 3.29688 105.39 3.52637C105.795 3.75098 106.107 4.04883 106.327 4.41992C106.552 4.79102 106.664 5.19873 106.664 5.64307C106.664 5.9751 106.603 6.28271 106.481 6.56592C106.359 6.84424 106.19 7.10303 105.975 7.34229C105.761 7.57666 105.514 7.79395 105.236 7.99414L102.899 9.65674C102.719 9.82275 102.582 9.98633 102.489 10.1475C102.396 10.3086 102.333 10.4624 102.299 10.6089C102.265 10.7505 102.247 10.8872 102.247 11.019C102.247 11.3022 102.308 11.5562 102.431 11.7808C102.553 12.0054 102.724 12.1812 102.943 12.3081C103.163 12.4351 103.419 12.4985 103.712 12.4985C104.113 12.4985 104.501 12.4106 104.877 12.2349C105.253 12.0591 105.59 11.8076 105.888 11.4805C106.185 11.1484 106.422 10.7554 106.598 10.3013C106.774 9.84717 106.862 9.34668 106.862 8.7998H108.649C108.649 9.34668 108.595 9.8667 108.488 10.3599C108.38 10.8481 108.207 11.3022 107.968 11.7222C107.728 12.1372 107.411 12.5059 107.016 12.8281C106.986 12.8525 106.945 12.8892 106.891 12.938C106.842 12.9819 106.801 13.0161 106.767 13.0405C106.298 13.4165 105.809 13.6973 105.302 13.8828C104.794 14.0635 104.227 14.1538 103.602 14.1538C102.89 14.1538 102.272 14.0244 101.749 13.7656C101.232 13.5068 100.831 13.1504 100.548 12.6963C100.27 12.2422 100.131 11.7222 100.131 11.1362C100.131 10.7065 100.214 10.333 100.38 10.0156C100.551 9.69336 100.785 9.39551 101.083 9.12207C101.381 8.84863 101.723 8.57275 102.108 8.29443Z" fill="white"/>
<path d="M54.9556 18.3359H56.8159L59.5552 26.1655L62.2944 18.3359H64.1548L60.3022 29H58.8081L54.9556 18.3359ZM53.9521 18.3359H55.8052L56.1421 25.9678V29H53.9521V18.3359ZM63.3052 18.3359H65.1655V29H62.9683V25.9678L63.3052 18.3359ZM71.2865 21.0752V29H69.1698V21.0752H71.2865ZM69.038 19.0098C69.038 18.7021 69.1454 18.4482 69.3603 18.248C69.5751 18.0479 69.8632 17.9478 70.2245 17.9478C70.581 17.9478 70.8666 18.0479 71.0814 18.248C71.3012 18.4482 71.411 18.7021 71.411 19.0098C71.411 19.3174 71.3012 19.5713 71.0814 19.7715C70.8666 19.9717 70.581 20.0718 70.2245 20.0718C69.8632 20.0718 69.5751 19.9717 69.3603 19.7715C69.1454 19.5713 69.038 19.3174 69.038 19.0098ZM77.1951 22.7671V29H75.0857V21.0752H77.0633L77.1951 22.7671ZM76.8875 24.7593H76.3162C76.3162 24.1733 76.3919 23.646 76.5433 23.1772C76.6946 22.7036 76.907 22.3008 77.1805 21.9688C77.4539 21.6318 77.7786 21.3755 78.1546 21.1997C78.5354 21.019 78.9603 20.9287 79.429 20.9287C79.8001 20.9287 80.1395 20.9824 80.4471 21.0898C80.7547 21.1973 81.0184 21.3682 81.2381 21.6025C81.4627 21.8369 81.6336 22.147 81.7508 22.5327C81.8729 22.9185 81.9339 23.3896 81.9339 23.9463V29H79.8099V23.939C79.8099 23.5874 79.761 23.314 79.6634 23.1187C79.5657 22.9233 79.4217 22.7866 79.2313 22.7085C79.0457 22.6255 78.8162 22.584 78.5428 22.584C78.2596 22.584 78.013 22.6401 77.803 22.7524C77.5979 22.8647 77.4271 23.021 77.2903 23.2212C77.1585 23.4165 77.0584 23.646 76.99 23.9097C76.9217 24.1733 76.8875 24.4565 76.8875 24.7593ZM87.8645 21.0752V29H85.7478V21.0752H87.8645ZM85.6159 19.0098C85.6159 18.7021 85.7233 18.4482 85.9382 18.248C86.153 18.0479 86.4411 17.9478 86.8024 17.9478C87.1589 17.9478 87.4445 18.0479 87.6594 18.248C87.8791 18.4482 87.989 18.7021 87.989 19.0098C87.989 19.3174 87.8791 19.5713 87.6594 19.7715C87.4445 19.9717 87.1589 20.0718 86.8024 20.0718C86.4411 20.0718 86.153 19.9717 85.9382 19.7715C85.7233 19.5713 85.6159 19.3174 85.6159 19.0098ZM93.773 22.7671V29H91.6637V21.0752H93.6412L93.773 22.7671ZM93.4654 24.7593H92.8941C92.8941 24.1733 92.9698 23.646 93.1212 23.1772C93.2726 22.7036 93.485 22.3008 93.7584 21.9688C94.0318 21.6318 94.3565 21.3755 94.7325 21.1997C95.1134 21.019 95.5382 20.9287 96.0069 20.9287C96.378 20.9287 96.7174 20.9824 97.025 21.0898C97.3326 21.1973 97.5963 21.3682 97.816 21.6025C98.0406 21.8369 98.2115 22.147 98.3287 22.5327C98.4508 22.9185 98.5118 23.3896 98.5118 23.9463V29H96.3878V23.939C96.3878 23.5874 96.339 23.314 96.2413 23.1187C96.1437 22.9233 95.9996 22.7866 95.8092 22.7085C95.6236 22.6255 95.3941 22.584 95.1207 22.584C94.8375 22.584 94.5909 22.6401 94.381 22.7524C94.1759 22.8647 94.005 23.021 93.8683 23.2212C93.7364 23.4165 93.6363 23.646 93.568 23.9097C93.4996 24.1733 93.4654 24.4565 93.4654 24.7593ZM107.233 21.0752H109.145V28.7363C109.145 29.459 108.983 30.0718 108.661 30.5747C108.344 31.0825 107.899 31.4658 107.328 31.7246C106.757 31.9883 106.093 32.1201 105.336 32.1201C105.004 32.1201 104.652 32.0762 104.281 31.9883C103.915 31.9004 103.563 31.7637 103.227 31.5781C102.895 31.3926 102.616 31.1582 102.392 30.875L103.322 29.6299C103.566 29.9131 103.849 30.1328 104.171 30.2891C104.494 30.4502 104.85 30.5308 105.241 30.5308C105.622 30.5308 105.944 30.46 106.208 30.3184C106.471 30.1816 106.674 29.979 106.815 29.7104C106.957 29.4468 107.028 29.127 107.028 28.751V22.9062L107.233 21.0752ZM101.901 25.1328V24.979C101.901 24.3735 101.974 23.8242 102.121 23.3311C102.272 22.833 102.484 22.4058 102.758 22.0493C103.036 21.6929 103.373 21.417 103.769 21.2217C104.164 21.0264 104.611 20.9287 105.109 20.9287C105.636 20.9287 106.078 21.0264 106.435 21.2217C106.791 21.417 107.084 21.6953 107.313 22.0566C107.543 22.4131 107.721 22.8354 107.848 23.3237C107.98 23.8071 108.083 24.3369 108.156 24.9131V25.25C108.083 25.8018 107.973 26.3145 107.826 26.7881C107.68 27.2617 107.487 27.6768 107.248 28.0332C107.008 28.3848 106.71 28.6582 106.354 28.8535C106.002 29.0488 105.583 29.1465 105.094 29.1465C104.606 29.1465 104.164 29.0464 103.769 28.8462C103.378 28.646 103.043 28.3652 102.765 28.0039C102.487 27.6426 102.272 27.2178 102.121 26.7295C101.974 26.2412 101.901 25.709 101.901 25.1328ZM104.01 24.979V25.1328C104.01 25.46 104.042 25.7651 104.105 26.0483C104.169 26.3315 104.267 26.583 104.398 26.8027C104.535 27.0176 104.704 27.186 104.904 27.3081C105.109 27.4253 105.351 27.4839 105.629 27.4839C106.015 27.4839 106.33 27.4033 106.574 27.2422C106.818 27.0762 107.001 26.8491 107.123 26.561C107.245 26.2729 107.316 25.9409 107.335 25.5649V24.6055C107.326 24.2979 107.284 24.022 107.211 23.7778C107.138 23.5288 107.035 23.3164 106.903 23.1406C106.771 22.9648 106.601 22.8281 106.391 22.7305C106.181 22.6328 105.932 22.584 105.644 22.584C105.365 22.584 105.124 22.6475 104.918 22.7744C104.718 22.8965 104.55 23.0649 104.413 23.2798C104.281 23.4946 104.181 23.7485 104.113 24.0415C104.044 24.3296 104.01 24.6421 104.01 24.979Z" fill="white"/>
<g clip-path="url(#clip0_2064_289)">
<mask id="mask0_2064_289" style="mask-type:luminance" maskUnits="userSpaceOnUse" x="0" y="2" width="48" height="22">
<path d="M39.5531 2H39.463C37.5847 2.00191 37.0116 2.07082 35.1715 2.64308C34.1231 2.96845 33.3564 3.5522 32.6089 4.14361C31.1733 5.27858 30.2341 7.52171 30.5197 10.0558C30.5638 10.452 30.7746 11.407 30.9088 11.7037C30.9989 11.8989 31.1426 12.2434 31.2039 12.4137C31.2749 12.6128 31.6122 12.9918 31.2979 13.0626C30.9126 13.1468 29.8488 13.1276 29.3716 13.1621C28.695 13.2119 28.1104 13.2329 27.4721 13.3018C26.2799 13.43 24.9325 13.4607 23.7748 13.6674C21.7278 13.9009 19.2552 14.2071 17.1775 14.3449C15.9681 14.4234 14.4385 14.4846 13.3269 14.4846C13.0873 14.4846 11.8606 14.5248 11.8606 14.3468V14.253C11.8606 14.0846 19.0827 7.04323 20.2787 5.90826C20.5777 5.625 20.8844 5.38384 21.1815 5.12929C21.4786 4.87474 21.8466 4.68908 22.1648 4.43262C22.5845 4.09576 23.8764 3.51201 24.5032 3.40483C25.0916 3.30339 25.3139 3.24023 25.9963 3.21727C26.6633 3.1943 26.6077 2.48614 26.0193 2.48614H24.8731C23.6023 2.51294 22.3334 2.645 21.0627 2.62012L17.5091 2.50337C17.2963 2.50337 17.1028 2.65265 17.1028 2.86701C17.1028 3.37229 18.3045 3.01822 18.0611 4.16275C17.9442 4.70822 17.4478 5.21542 17.1718 5.60969C16.5354 6.51881 15.6691 7.26333 14.9982 8.08441C14.3025 8.93611 13.4093 9.67681 12.7327 10.4673C12.081 11.2271 11.1667 12.1362 10.448 12.8539C10.2371 13.0645 9.45703 13.943 9.30753 14.0272C9.18486 14.0961 8.48526 13.9717 8.37218 13.8817C8.21501 13.7535 8.28018 13.074 8.28018 12.8118V8.21456C8.28018 7.0394 8.20734 4.78861 8.6731 3.96753C9.29028 2.8785 10.9386 3.40866 11.2223 3.01247C11.4734 2.66031 10.9176 2.52442 10.6377 2.52442C8.8916 2.52442 7.1474 2.6871 5.39937 2.65839L0.682363 2.51485C0.362274 2.51485 0.0747681 2.58949 0.0747681 2.90912C0.0747681 3.60197 3.383 2.38087 3.66859 4.87091C3.85642 6.49967 3.82001 8.54758 3.82001 10.2835V10.7256C3.83151 10.9017 3.79509 11.1123 3.80276 11.2635C3.80276 11.6769 3.78167 11.8319 3.43475 11.5218C3.245 11.3515 3.08591 11.2482 2.90382 11.0721C2.60098 10.7773 2.23298 10.4347 1.9033 10.1113C1.57938 9.79356 1.29187 9.3878 1.02162 9.05478C0.943035 8.95717 0.224271 7.91216 0.216604 7.90833C1.66371e-05 8.3294 1.76722 11.051 2.04514 11.4644C2.8329 12.6319 3.67434 13.342 4.76686 14.232C9.67362 18.2264 20.3957 17.5029 27.2095 16.7488C32.9098 16.1172 40.8584 16.1076 45.2208 20.0523C45.8495 20.6207 46.7043 21.459 47.1509 22.1385C47.2161 22.238 47.9502 23.3251 47.9809 23.3366L48 23.2103C48 19.0742 39.3595 13.9698 37.1802 12.14C36.2046 11.3228 34.1672 9.6481 34.1672 7.83369V7.22697C34.1672 5.20393 36.1912 3.69575 38.221 3.69575H38.9934C40.1895 3.69575 41.167 4.1972 41.8762 4.72162C42.4147 5.11972 43.2715 6.25277 43.4344 7.06237C43.4939 7.35329 43.582 7.53511 43.6012 7.85665C43.6204 8.16288 43.5858 8.49782 43.8523 8.57821C44.4215 8.75429 44.3391 7.59636 44.3391 7.15615C44.3391 6.53029 44.3161 5.82405 44.364 5.20968C44.4196 4.47855 44.4886 3.68427 44.4886 2.97994C44.4886 2.40767 40.36 2 39.555 2" fill="white"/>
</mask>
<g mask="url(#mask0_2064_289)">
<path d="M48 2H0V23.3366H48V2Z" fill="url(#paint0_linear_2064_289)"/>
</g>
<path fill-rule="evenodd" clip-rule="evenodd" d="M3.90434 16.0464C3.90434 16.3641 3.88134 16.412 3.90817 16.7928C3.90051 19.3977 3.87176 21.9222 3.87176 24.6342C3.87176 25.574 3.76442 26.3032 3.72417 27.1568C3.69159 27.8209 3.55742 28.9272 3.22775 29.3004C2.73132 29.8593 2.53773 29.8459 1.83814 29.8957C1.56788 29.9148 1.37238 29.9799 1.19604 29.9875L0.739864 30.0239C0.693863 30.1024 0.726447 30.2153 0.732198 30.3033L1.5468 30.3856C3.16066 30.3856 4.77261 30.3052 6.38647 30.3033C7.45791 30.3033 11.2798 30.533 11.9372 30.2938L11.9411 30.043C11.759 29.9263 10.3119 29.8765 9.90937 29.844C9.60845 29.821 9.27111 29.6411 9.06794 29.5205C8.83218 29.3827 8.67502 29.1014 8.57535 28.8449C8.5006 28.6497 8.45843 28.7549 8.42009 28.4372C8.33001 27.6889 8.24759 27.9166 8.25142 26.8525C8.25142 26.108 8.21884 25.3079 8.21884 24.5653L8.18817 17.9737C9.19636 18.5632 9.95537 18.3182 11.0651 19.4283C11.0651 19.4283 11.2645 19.6676 11.276 19.6848C11.4734 19.9776 12.2554 20.8561 12.5257 21.1911C13.5971 22.5174 14.8698 23.9146 15.9106 25.1376C16.9897 26.4065 18.2279 27.6927 19.5466 28.8353C21.1202 30.2 22.5309 30.5521 25.1567 30.5521C26.3758 30.5521 27.5756 30.5349 28.8042 30.5349C29.0994 30.5349 29.4137 30.554 29.6322 30.4545C29.8699 30.3454 30.029 30.1521 29.7683 29.9492C29.5632 29.7885 29.3102 29.8421 28.9921 29.8095C28.6279 29.7732 28.5263 29.71 28.2254 29.6449C25.5995 29.0765 23.5026 26.8314 21.6913 25.1759C21.0799 24.6189 20.4532 23.8859 19.8762 23.3232C19.3338 22.7969 18.6093 22.037 18.0918 21.4418C17.8618 21.1777 16.3514 19.6944 16.3476 19.5164C16.3917 19.3977 16.568 19.4111 16.6715 19.4149L18.753 19.4819C24.4706 19.4819 29.6572 18.0465 36.0264 18.5498C42.0352 19.0245 43.5264 29.287 36.9157 29.287H35.9574C33.5232 29.287 31.4838 27.4956 31.0161 25.4094C30.8743 24.774 30.7171 24.261 30.6922 23.5337C30.6634 22.7069 29.983 22.7835 29.9025 23.861C29.7741 25.595 29.707 27.1721 29.707 28.9483C29.707 29.798 29.9198 29.7751 30.4622 30.0928C30.7248 30.2478 31.5298 30.4928 31.8767 30.5713C33.4177 30.9254 34.355 30.9962 35.9804 30.9962C38.5967 30.9962 41.1708 30.0603 42.616 28.7109C44.8873 26.5922 45.056 24.9845 45.056 22.0868C45.056 21.9968 45.1039 21.9375 45.1403 21.882C45.378 21.8686 46.4667 22.9519 46.6027 23.1261C46.7944 23.3691 46.9861 23.6141 47.2122 23.8725C47.3177 23.9931 47.7949 24.6457 47.8083 24.6476C47.9713 24.4428 46.4877 22.5212 46.3114 22.3203C46.0411 22.0102 45.6655 21.6045 45.3588 21.3365C42.8172 19.1068 39.8579 17.7039 36.3292 17.4455C35.8577 17.411 35.4379 17.3172 34.9511 17.2828C28.7947 16.745 23.1174 18.167 17.1622 18.167C12.2056 18.167 5.57954 17.1737 2.27323 13.0319C2.15631 12.8865 1.8688 12.5496 1.79597 12.4137C1.67522 12.1917 1.67713 12.3334 1.57171 12.0769C1.48738 11.8702 1.54296 12.0424 1.43754 11.9353C1.33404 11.8281 1.45288 11.8319 1.33788 11.7419C1.18837 11.918 2.4534 13.6061 2.61632 13.8588C2.73132 14.0387 3.23925 14.6569 3.40216 14.8004C3.87559 15.2177 3.90626 15.2578 3.90626 16.0445" fill="white"/>
</g>
<defs>
<linearGradient id="paint0_linear_2064_289" x1="5.37635" y1="6.37909" x2="63.3433" y2="26.0133" gradientUnits="userSpaceOnUse">
<stop stop-color="#CA9631"/>
<stop offset="1" stop-color="#FFF200"/>
</linearGradient>
<clipPath id="clip0_2064_289">
<rect width="48" height="29" fill="white" transform="translate(0 2)"/>
</clipPath>
</defs>
</svg>
